<svg xmlns="http://www.w3.org/2000/svg" aria-hidden="true" style="position:absolute;width:0;height:0;overflow:hidden"><defs><symbol id="icon-arrow-right" viewBox="0 0 32 32"><path stroke-linecap="round" stroke-linejoin="round" stroke-width="2.667" d="M6.421 15.411H24.4m-.001 0L15.41 6.422m8.989 8.989L15.41 24.4"/></symbol><symbol id="icon-arrow-left" viewBox="0 0 32 32"><path stroke-linecap="round" stroke-linejoin="round" stroke-width="2.667" d="M24.4 15.41H6.421m0 0 8.989 8.989M6.421 15.41l8.989-8.989"/></symbol><symbol id="icon-close" viewBox="0 0 32 32"><path stroke-linecap="round" stroke-width="1.561" d="M26.667 26.667 5.334 5.334m21.333-.001L5.334 26.666"/></symbol><symbol id="icon-path" viewBox="0 0 48 32"><path d="M10.667 16A5.333 5.333 0 1 1 .001 16a5.333 5.333 0 0 1 10.666 0"/><path fill="none" stroke="#151515" stroke-width=".762" d="M10.667 16h29.714" style="stroke:var(--color1, #151515)"/><path d="M40.381 12.19H48v7.619h-7.619z"/></symbol><symbol id="icon-link" viewBox="0 0 32 32"><path stroke-linecap="round" stroke-linejoin="round" stroke-width="1.6" d="M13.333 17.333a6.66 6.66 0 0 0 4.862 2.656 6.67 6.67 0 0 0 5.191-1.936l4-4a6.668 6.668 0 0 0-4.737-11.297 6.67 6.67 0 0 0-4.689 1.871l-2.293 2.28m3 7.76a6.66 6.66 0 0 0-4.862-2.656 6.67 6.67 0 0 0-5.191 1.936l-4 4a6.668 6.668 0 0 0 4.737 11.297 6.67 6.67 0 0 0 4.689-1.871l2.28-2.28"/></symbol><symbol id="icon-menu" viewBox="0 0 32 32"><path stroke-linecap="round" stroke-linejoin="round" stroke-width="2.667" d="M5.333 6.667h21.333M5.333 16h21.333M5.333 25.333h21.333"/></symbol><symbol id="icon-rotate" viewBox="0 0 32 32"><path stroke-linecap="round" stroke-linejoin="round" stroke-width="1.6" d="M28 16a12.01 12.01 0 0 1-7.407 11.087 12 12 0 0 1-13.077-2.601 11.999 11.999 0 0 1 8.486-20.484c3.36 0 6.573 1.333 8.987 3.653l3.013 3.013M28 10.667V4m0 6.667h-6.667"/></symbol><symbol id="icon-squares" viewBox="0 0 32 32"><path stroke-linecap="round" stroke-linejoin="round" stroke-width="1.6" d="M21.333 16v2.667a2.67 2.67 0 0 1-2.667 2.667h-6.667a1.33 1.33 0 0 0-1.333 1.334v4a2.67 2.67 0 0 0 2.667 2.667h13.333a2.67 2.67 0 0 0 2.667-2.667V13.335a2.67 2.67 0 0 0-2.667-2.667M5.333 21.333a2.67 2.67 0 0 1-2.667-2.667V5.333a2.67 2.67 0 0 1 2.667-2.667h13.333a2.67 2.67 0 0 1 2.667 2.667v4a1.335 1.335 0 0 1-1.334 1.334h-6.667a2.67 2.67 0 0 0-2.667 2.667v2.667"/></symbol><symbol id="icon-star" viewBox="0 0 32 32"><path fill="#fff" d="M15.367 3.06a.708.708 0 0 1 1.267 0l3.08 6.239a2.82 2.82 0 0 0 2.127 1.546l6.888 1.008a.706.706 0 0 1 .392 1.206L24.14 17.91a2.82 2.82 0 0 0-.814 2.504l1.176 6.853a.706.706 0 0 1-1.028.747l-6.157-3.237a2.83 2.83 0 0 0-2.63 0l-6.156 3.237c-.117.062-.249.09-.381.08s-.259-.056-.366-.133a.7.7 0 0 1-.281-.694l1.175-6.852a2.82 2.82 0 0 0-.815-2.505l-4.981-4.849a.71.71 0 0 1-.181-.726.7.7 0 0 1 .574-.482l6.887-1.007c.454-.066.885-.241 1.255-.511s.671-.625.874-1.036L15.37 3.06z" style="fill:var(--color2, #fff)"/></symbol><symbol id="icon-trending-down" viewBox="0 0 32 32"><path stroke-linecap="round" stroke-linejoin="round" stroke-width="1.6" d="M21.333 22.667h8m0 0v-8m0 8L18 11.334l-6.667 6.667-8.667-8.667"/></symbol></defs></svg>